<mxfile host="app.diagrams.net" modified="2024-02-18T07:35:15.522Z" agent="Mozilla/5.0 (Macintosh; Intel Mac OS X 10.15; rv:122.0) Gecko/20100101 Firefox/122.0" etag="H-dfh2GSHHddE6t-ygyF" version="23.1.2" type="github">
  <diagram name="Page-1" id="e7e014a7-5840-1c2e-5031-d8a46d1fe8dd">
    <mxGraphModel dx="1065" dy="730" grid="1" gridSize="10" guides="1" tooltips="1" connect="1" arrows="1" fold="1" page="1" pageScale="1" pageWidth="1169" pageHeight="826" background="none" math="0" shadow="0">
      <root>
        <mxCell id="0" />
        <mxCell id="1" parent="0" />
        <mxCell id="2" value="{{ game_process.first_player_hand }}" style="swimlane;whiteSpace=wrap" parent="1" vertex="1">
          <mxGeometry x="164.5" y="128" width="280" height="570" as="geometry" />
        </mxCell>
        <mxCell id="dYky7ozjCTGvR8onbQTt-42" value="&lt;div&gt;{{ game_process.face_down_card }}&lt;/div&gt;" style="swimlane;horizontal=0;whiteSpace=wrap;html=1;rotation=-180;" parent="2" vertex="1">
          <mxGeometry x="40" y="103" width="200" height="122" as="geometry" />
        </mxCell>
        <mxCell id="dYky7ozjCTGvR8onbQTt-43" value="&lt;div&gt;{{ game_process.face_down_card }}&lt;/div&gt;" style="swimlane;horizontal=0;whiteSpace=wrap;html=1;rotation=-180;" parent="2" vertex="1">
          <mxGeometry x="40" y="225" width="200" height="122" as="geometry" />
        </mxCell>
        <mxCell id="dYky7ozjCTGvR8onbQTt-52" value="&lt;div&gt;{{ game_process.face_down_card }}&lt;/div&gt;" style="swimlane;horizontal=0;whiteSpace=wrap;html=1;rotation=-180;" parent="2" vertex="1">
          <mxGeometry x="40" y="347" width="200" height="122" as="geometry" />
        </mxCell>
        <mxCell id="3" value="{{ game_process.first_player_table }}" style="swimlane;whiteSpace=wrap" parent="1" vertex="1">
          <mxGeometry x="444.5" y="128" width="280" height="570" as="geometry" />
        </mxCell>
        <mxCell id="kVKbn-yuMC2sfHe30jHJ-10" value="CI" style="swimlane;horizontal=0;whiteSpace=wrap;html=1;rotation=-180;fillColor=#dae8fc;strokeColor=#6c8ebf;" parent="3" vertex="1">
          <mxGeometry x="62.5" y="182" width="200" height="122" as="geometry" />
        </mxCell>
        <mxCell id="kVKbn-yuMC2sfHe30jHJ-12" value="&lt;div&gt;{{ card.certificate.name }}&lt;/div&gt;" style="swimlane;horizontal=0;whiteSpace=wrap;html=1;rotation=-180;fillColor=#dae8fc;strokeColor=#6c8ebf;" parent="kVKbn-yuMC2sfHe30jHJ-10" vertex="1">
          <mxGeometry x="-24" width="200" height="122" as="geometry" />
        </mxCell>
        <mxCell id="dYky7ozjCTGvR8onbQTt-59" value="&lt;div&gt;{{ card.component.name }}&lt;/div&gt;" style="swimlane;horizontal=0;whiteSpace=wrap;html=1;rotation=-180;fillColor=#e1d5e7;strokeColor=#9673a6;" parent="kVKbn-yuMC2sfHe30jHJ-12" vertex="1">
          <mxGeometry x="-20" width="200" height="122" as="geometry" />
        </mxCell>
        <mxCell id="dYky7ozjCTGvR8onbQTt-60" value="&lt;div align=&quot;center&quot; style=&quot;font-size: 20px;&quot;&gt;&lt;font style=&quot;font-size: 20px;&quot;&gt;{{ card.component.types.frontend }}&lt;br&gt;&lt;/font&gt;&lt;/div&gt;&lt;div align=&quot;center&quot;&gt;&lt;br&gt;&lt;/div&gt;" style="text;strokeColor=none;fillColor=none;align=center;verticalAlign=middle;spacingLeft=4;spacingRight=4;overflow=hidden;points=[[0,0.5],[1,0.5]];portConstraint=eastwest;rotatable=0;whiteSpace=wrap;html=1;rotation=-270;" parent="dYky7ozjCTGvR8onbQTt-59" vertex="1">
          <mxGeometry x="26" y="46" width="140" height="30" as="geometry" />
        </mxCell>
        <mxCell id="kVKbn-yuMC2sfHe30jHJ-13" value="CI" style="swimlane;horizontal=0;whiteSpace=wrap;html=1;rotation=-180;fillColor=#dae8fc;strokeColor=#6c8ebf;" parent="3" vertex="1">
          <mxGeometry x="38.5" y="312" width="200" height="122" as="geometry" />
        </mxCell>
        <mxCell id="kVKbn-yuMC2sfHe30jHJ-6" value="&lt;div&gt;{{ card.component.name }}&lt;/div&gt;" style="swimlane;horizontal=0;whiteSpace=wrap;html=1;rotation=-180;fillColor=#e1d5e7;strokeColor=#9673a6;" parent="kVKbn-yuMC2sfHe30jHJ-13" vertex="1">
          <mxGeometry x="-20" width="200" height="122" as="geometry" />
        </mxCell>
        <mxCell id="kVKbn-yuMC2sfHe30jHJ-7" value="&lt;div align=&quot;center&quot; style=&quot;font-size: 20px;&quot;&gt;&lt;font style=&quot;font-size: 20px;&quot;&gt;{{ card.component.types.monitoring }}&lt;br&gt;&lt;/font&gt;&lt;/div&gt;" style="text;strokeColor=none;fillColor=none;align=center;verticalAlign=middle;spacingLeft=4;spacingRight=4;overflow=hidden;points=[[0,0.5],[1,0.5]];portConstraint=eastwest;rotatable=0;whiteSpace=wrap;html=1;rotation=-270;" parent="kVKbn-yuMC2sfHe30jHJ-6" vertex="1">
          <mxGeometry x="26" y="46" width="140" height="30" as="geometry" />
        </mxCell>
        <mxCell id="kVKbn-yuMC2sfHe30jHJ-4" value="Мета" style="swimlane;horizontal=0;whiteSpace=wrap;html=1;rotation=-180;fillColor=#fff2cc;strokeColor=#d6b656;" parent="3" vertex="1">
          <mxGeometry x="17.5" y="442" width="200" height="122" as="geometry" />
        </mxCell>
        <mxCell id="kVKbn-yuMC2sfHe30jHJ-5" value="&lt;div align=&quot;center&quot; style=&quot;font-size: 20px;&quot;&gt;&lt;font style=&quot;font-size: 20px;&quot;&gt;DDoS&lt;br&gt;&lt;/font&gt;&lt;/div&gt;" style="text;strokeColor=none;fillColor=none;align=center;verticalAlign=middle;spacingLeft=4;spacingRight=4;overflow=hidden;points=[[0,0.5],[1,0.5]];portConstraint=eastwest;rotatable=0;whiteSpace=wrap;html=1;rotation=-270;" parent="kVKbn-yuMC2sfHe30jHJ-4" vertex="1">
          <mxGeometry x="26" y="46" width="140" height="30" as="geometry" />
        </mxCell>
        <mxCell id="Hk7dOXYgMEHAXx12Ol8E-4" value="&lt;div&gt;{{ card.architecture.name }}&lt;/div&gt;" style="swimlane;horizontal=0;whiteSpace=wrap;html=1;rotation=-180;" vertex="1" parent="3">
          <mxGeometry x="17.5" y="42" width="200" height="122" as="geometry" />
        </mxCell>
        <mxCell id="4" value="{{ game_process.deck }}" style="swimlane;whiteSpace=wrap" parent="1" vertex="1">
          <mxGeometry x="724.5" y="128" width="280" height="570" as="geometry" />
        </mxCell>
        <mxCell id="dYky7ozjCTGvR8onbQTt-58" value="&lt;div&gt;{{ game_process.face_down_cards }}&lt;/div&gt;" style="swimlane;horizontal=0;whiteSpace=wrap;html=1;rotation=90;" parent="4" vertex="1">
          <mxGeometry x="40" y="225" width="210" height="122" as="geometry" />
        </mxCell>
        <mxCell id="dYky7ozjCTGvR8onbQTt-61" value="&lt;div&gt;{{ game_process.face_down_cards }}&lt;/div&gt;" style="swimlane;horizontal=0;whiteSpace=wrap;html=1;rotation=90;" parent="dYky7ozjCTGvR8onbQTt-58" vertex="1">
          <mxGeometry x="10" y="-1" width="200" height="122" as="geometry" />
        </mxCell>
        <mxCell id="dYky7ozjCTGvR8onbQTt-41" value="{{ game_process.discard }}" style="swimlane;whiteSpace=wrap" parent="1" vertex="1">
          <mxGeometry x="1004.5" y="128" width="280" height="570" as="geometry" />
        </mxCell>
        <mxCell id="kVKbn-yuMC2sfHe30jHJ-8" value="Мета" style="swimlane;horizontal=0;whiteSpace=wrap;html=1;rotation=0;fillColor=#fff2cc;strokeColor=#d6b656;" parent="dYky7ozjCTGvR8onbQTt-41" vertex="1">
          <mxGeometry x="40" y="432" width="200" height="122" as="geometry" />
        </mxCell>
        <mxCell id="kVKbn-yuMC2sfHe30jHJ-9" value="&lt;div align=&quot;center&quot; style=&quot;font-size: 20px;&quot;&gt;&lt;font style=&quot;font-size: 20px;&quot;&gt;Manual&lt;/font&gt;&lt;/div&gt;" style="text;strokeColor=none;fillColor=none;align=center;verticalAlign=middle;spacingLeft=4;spacingRight=4;overflow=hidden;points=[[0,0.5],[1,0.5]];portConstraint=eastwest;rotatable=0;whiteSpace=wrap;html=1;rotation=-90;" parent="kVKbn-yuMC2sfHe30jHJ-8" vertex="1">
          <mxGeometry x="34" y="46" width="140" height="30" as="geometry" />
        </mxCell>
        <mxCell id="dYky7ozjCTGvR8onbQTt-65" value="&lt;div&gt;{{ game_process.face_down_cards }}&lt;/div&gt;" style="swimlane;horizontal=0;whiteSpace=wrap;html=1;rotation=90;fillColor=#f8cecc;strokeColor=#b85450;" parent="1" vertex="1">
          <mxGeometry x="1050" y="357" width="210" height="122" as="geometry" />
        </mxCell>
        <mxCell id="dYky7ozjCTGvR8onbQTt-66" value="&lt;div&gt;{{ game_process.face_down_cards }}&lt;/div&gt;" style="swimlane;horizontal=0;whiteSpace=wrap;html=1;rotation=90;fillColor=#d5e8d4;strokeColor=#82b366;" parent="dYky7ozjCTGvR8onbQTt-65" vertex="1">
          <mxGeometry x="10" y="-1" width="200" height="122" as="geometry" />
        </mxCell>
        <mxCell id="dYky7ozjCTGvR8onbQTt-67" value="&lt;div&gt;{{ game_process.face_down_cards }}&lt;/div&gt;" style="swimlane;horizontal=0;whiteSpace=wrap;html=1;rotation=90;fillColor=#dae8fc;strokeColor=#6c8ebf;" parent="1" vertex="1">
          <mxGeometry x="1060" y="367" width="210" height="122" as="geometry" />
        </mxCell>
        <mxCell id="dYky7ozjCTGvR8onbQTt-68" value="{{ card.attack.name }}" style="swimlane;horizontal=0;whiteSpace=wrap;html=1;rotation=90;fillColor=#f8cecc;strokeColor=#b85450;" parent="dYky7ozjCTGvR8onbQTt-67" vertex="1">
          <mxGeometry x="10" y="-1" width="200" height="122" as="geometry" />
        </mxCell>
        <mxCell id="dYky7ozjCTGvR8onbQTt-69" value="&lt;div align=&quot;center&quot; style=&quot;font-size: 20px;&quot;&gt;&lt;font style=&quot;font-size: 20px;&quot;&gt;{{ card.attack.types.error }}&lt;br&gt;&lt;/font&gt;&lt;/div&gt;&lt;div align=&quot;center&quot;&gt;&lt;br&gt;&lt;/div&gt;" style="text;strokeColor=none;fillColor=none;align=center;verticalAlign=middle;spacingLeft=4;spacingRight=4;overflow=hidden;points=[[0,0.5],[1,0.5]];portConstraint=eastwest;rotatable=0;whiteSpace=wrap;html=1;" parent="dYky7ozjCTGvR8onbQTt-68" vertex="1">
          <mxGeometry x="30" y="46" width="140" height="30" as="geometry" />
        </mxCell>
        <mxCell id="dYky7ozjCTGvR8onbQTt-74" value="{{ game_process.second_player_hand }}" style="swimlane;whiteSpace=wrap" parent="1" vertex="1">
          <mxGeometry x="1564.5" y="128" width="280" height="570" as="geometry" />
        </mxCell>
        <mxCell id="dYky7ozjCTGvR8onbQTt-75" value="&lt;div&gt;{{ game_process.face_down_card }}&lt;/div&gt;" style="swimlane;horizontal=0;whiteSpace=wrap;html=1;rotation=0;" parent="dYky7ozjCTGvR8onbQTt-74" vertex="1">
          <mxGeometry x="40" y="103" width="200" height="122" as="geometry" />
        </mxCell>
        <mxCell id="dYky7ozjCTGvR8onbQTt-76" value="&lt;div&gt;{{ game_process.face_down_card }}&lt;/div&gt;" style="swimlane;horizontal=0;whiteSpace=wrap;html=1;rotation=0;" parent="dYky7ozjCTGvR8onbQTt-74" vertex="1">
          <mxGeometry x="40" y="225" width="200" height="122" as="geometry" />
        </mxCell>
        <mxCell id="dYky7ozjCTGvR8onbQTt-77" value="&lt;div&gt;{{ game_process.face_down_card }}&lt;/div&gt;" style="swimlane;horizontal=0;whiteSpace=wrap;html=1;rotation=0;" parent="dYky7ozjCTGvR8onbQTt-74" vertex="1">
          <mxGeometry x="40" y="347" width="200" height="122" as="geometry" />
        </mxCell>
        <mxCell id="dYky7ozjCTGvR8onbQTt-78" value="{{ game_process.second_player_table }}" style="swimlane;whiteSpace=wrap" parent="1" vertex="1">
          <mxGeometry x="1284.5" y="128" width="280" height="570" as="geometry" />
        </mxCell>
        <mxCell id="dYky7ozjCTGvR8onbQTt-81" value="&lt;div&gt;{{ card.component.name }}&lt;/div&gt;" style="swimlane;horizontal=0;whiteSpace=wrap;html=1;rotation=0;fillColor=#e1d5e7;strokeColor=#9673a6;" parent="dYky7ozjCTGvR8onbQTt-78" vertex="1">
          <mxGeometry x="65.5" y="182" width="200" height="122" as="geometry" />
        </mxCell>
        <mxCell id="dYky7ozjCTGvR8onbQTt-82" value="&lt;div align=&quot;center&quot; style=&quot;font-size: 20px;&quot;&gt;&lt;font style=&quot;font-size: 20px;&quot;&gt;{{ card.component.types.backend }}&lt;br&gt;&lt;/font&gt;&lt;/div&gt;&lt;div align=&quot;center&quot;&gt;&lt;br&gt;&lt;/div&gt;" style="text;strokeColor=none;fillColor=none;align=center;verticalAlign=middle;spacingLeft=4;spacingRight=4;overflow=hidden;points=[[0,0.5],[1,0.5]];portConstraint=eastwest;rotatable=0;whiteSpace=wrap;html=1;rotation=-90;" parent="dYky7ozjCTGvR8onbQTt-81" vertex="1">
          <mxGeometry x="34" y="46" width="140" height="30" as="geometry" />
        </mxCell>
        <mxCell id="Hk7dOXYgMEHAXx12Ol8E-5" value="&lt;div&gt;{{ card.architecture.name }}&lt;/div&gt;" style="swimlane;horizontal=0;whiteSpace=wrap;html=1;rotation=0;" vertex="1" parent="dYky7ozjCTGvR8onbQTt-78">
          <mxGeometry x="65.5" y="42" width="200" height="122" as="geometry" />
        </mxCell>
        <mxCell id="dYky7ozjCTGvR8onbQTt-79" value="&lt;div&gt;{{ card.component.name }}&lt;/div&gt;" style="swimlane;horizontal=0;whiteSpace=wrap;html=1;rotation=45;fillColor=#e1d5e7;strokeColor=#9673a6;" parent="dYky7ozjCTGvR8onbQTt-78" vertex="1">
          <mxGeometry x="55.5" y="382" width="200" height="122" as="geometry" />
        </mxCell>
        <mxCell id="dYky7ozjCTGvR8onbQTt-80" value="&lt;div align=&quot;center&quot; style=&quot;font-size: 20px;&quot;&gt;&lt;font style=&quot;font-size: 20px;&quot;&gt;{{ card.component.types.cloud }}&lt;br&gt;&lt;/font&gt;&lt;/div&gt;" style="text;strokeColor=none;fillColor=none;align=center;verticalAlign=middle;spacingLeft=4;spacingRight=4;overflow=hidden;points=[[0,0.5],[1,0.5]];portConstraint=eastwest;rotatable=0;whiteSpace=wrap;html=1;rotation=-45;" parent="dYky7ozjCTGvR8onbQTt-79" vertex="1">
          <mxGeometry x="33" y="49" width="140" height="30" as="geometry" />
        </mxCell>
      </root>
    </mxGraphModel>
  </diagram>
</mxfile>
